<?xml version="1.0" standalone="no"?>
<!DOCTYPE svg PUBLIC "-//W3C//DTD SVG 20010904//EN"
 "http://www.w3.org/TR/2001/REC-SVG-20010904/DTD/svg10.dtd">
<svg version="1.0" xmlns="http://www.w3.org/2000/svg"
 width="200.000000pt" height="30.000000pt" viewBox="0 0 200.000000 30.000000"
 preserveAspectRatio="xMidYMid meet">

<g transform="translate(0.000000,30.000000) scale(0.100000,-0.100000)"
fill="#000000" stroke="none">
<path d="M0 150 l0 -150 1000 0 1000 0 0 150 0 150 -1000 0 -1000 0 0 -150z
m112 28 l27 -33 1 33 c0 22 5 32 15 32 13 0 15 -11 13 -57 -2 -32 -8 -58 -15
-60 -6 -2 -23 13 -37 34 l-26 38 0 -38 c0 -26 -4 -37 -15 -37 -12 0 -15 13
-15 60 0 70 12 76 52 28z m218 -23 c23 -56 20 -86 -4 -52 -16 21 -52 22 -60 2
-4 -13 -36 -22 -36 -11 0 19 53 116 64 116 7 0 24 -25 36 -55z m170 45 c0 -5
-7 -10 -15 -10 -11 0 -15 -12 -15 -50 0 -38 -4 -50 -15 -50 -11 0 -15 12 -15
50 0 38 -4 50 -15 50 -8 0 -15 5 -15 10 0 6 20 10 45 10 25 0 45 -4 45 -10z
m140 0 c0 -5 -9 -10 -20 -10 -11 0 -20 -4 -20 -10 0 -5 9 -10 20 -10 11 0 20
-4 20 -10 0 -5 -9 -10 -20 -10 -11 0 -20 -7 -20 -15 0 -8 9 -15 20 -15 11 0
20 -7 20 -15 0 -10 -11 -15 -35 -15 l-35 0 0 60 0 60 35 0 c19 0 35 -4 35 -10z
m152 -7 c39 -35 13 -94 -42 -96 l-35 -2 -3 58 -3 57 32 0 c18 0 41 -7 51 -17z
m120 -25 c2 -30 8 -43 18 -43 10 0 16 13 18 43 2 28 8 42 18 42 10 0 14 -12
14 -44 0 -35 -5 -48 -22 -60 -28 -20 -43 -20 -62 0 -21 21 -22 104 -2 104 10
0 16 -14 18 -42z m208 32 c0 -5 -9 -10 -20 -10 -11 0 -20 -4 -20 -10 0 -5 9
-10 20 -10 11 0 20 -4 20 -10 0 -5 -9 -10 -20 -10 -16 0 -20 -7 -20 -31 0 -20
-4 -29 -12 -27 -8 3 -14 27 -16 61 l-3 57 36 0 c19 0 35 -4 35 -10z m150 0 c0
-5 -9 -10 -20 -10 -11 0 -20 -4 -20 -10 0 -5 9 -10 20 -10 11 0 20 -4 20 -10
0 -5 -9 -10 -19 -10 -14 0 -21 -8 -23 -27 -2 -14 -9 -28 -15 -31 -10 -3 -13
13 -13 57 l0 61 35 0 c19 0 35 -4 35 -10z m280 -5 c0 -10 -10 -15 -30 -15 -18
0 -33 -6 -36 -15 -8 -21 15 -46 39 -43 27 4 33 -19 8 -27 -21 -6 -60 9 -73 29
-15 21 -8 55 14 70 29 21 78 21 78 1z m172 -2 c22 -20 24 -66 2 -83 -23 -20
-75 -16 -90 5 -44 59 33 128 88 78z m141 -15 l13 -32 13 32 c25 59 51 33 51
-51 0 -46 -22 -47 -31 -1 -4 16 -7 22 -8 13 0 -8 -7 -24 -15 -34 -13 -19 -15
-18 -29 15 l-15 35 -1 -32 c-1 -22 -6 -33 -16 -33 -16 0 -19 22 -9 83 8 46 29
48 47 5z m-487 -59 c8 -14 -18 -31 -30 -19 -9 9 0 30 14 30 5 0 12 -5 16 -11z"/>
<path d="M286 155 c-3 -8 -1 -15 4 -15 6 0 10 7 10 15 0 8 -2 15 -4 15 -2 0
-6 -7 -10 -15z"/>
<path d="M740 150 c0 -33 11 -38 30 -15 15 18 6 45 -15 45 -10 0 -15 -10 -15
-30z"/>
<path d="M1654 165 c-4 -9 0 -23 9 -32 21 -21 49 -9 45 19 -4 28 -45 38 -54
13z"/>
</g>
</svg>
